# xmcd CD database file
#
# Track frame offsets:
#	150
#	13437
#	35535
#	49515
#	61745
#	80777
#	98742
#	119707
#	132772
#	142055
#	158517
#	174490
#	194660
#	210157
#	225170
#
# Disc length: 3258 seconds
#
# Revision: 0
# Processed by: cddbd v1.5.1PL2 Copyright (c) Steve Scherf et al.
# Submitted via: CDex 1.51
#
DISCID=c80cb80f
DTITLE=ブレッド＆バター - BEST CHOICE
DYEAR=1988
DGENRE=J-Pop
TTITLE0=デビル・ウーマン
TTITLE1=グッド・オールド・デイズ
TTITLE2=地下鉄
TTITLE3=二日酔いに
TTITLE4=おもかげ
TTITLE5=ともしび
TTITLE6=ハイヤー
TTITLE7=セーリング・オン・ボード
TTITLE8=ゲット・トゥゲザー
TTITLE9=コンペイトー
TTITLE10=朝の陽
TTITLE11=＃４０５
TTITLE12=風
TTITLE13=我が夫子
TTITLE14=遠い昔
EXTD=YEAR: 1988
EXTT0=
EXTT1=
EXTT2=
EXTT3=
EXTT4=
EXTT5=
EXTT6=
EXTT7=
EXTT8=
EXTT9=
EXTT10=
EXTT11=
EXTT12=
EXTT13=
EXTT14=
PLAYORDER=
